/* XPM */
static char * cancel_xpm[] = {
"32 32 165 2",
"  	c None",
". 	c #B70000",
"+ 	c #FFC0B9",
"@ 	c #FEBDB6",
"# 	c #FAADA8",
"$ 	c #F59C98",
"% 	c #F08B88",
"& 	c #EC7B78",
"* 	c #E86968",
"= 	c #E35959",
"- 	c #E45858",
"; 	c #E45959",
"> 	c #F69E9A",
", 	c #DF5151",
"' 	c #DE4E4E",
") 	c #DC4C4C",
"! 	c #DD4C4C",
"~ 	c #DF4E4E",
"{ 	c #DF5050",
"] 	c #E15353",
"^ 	c #E35757",
"/ 	c #F7A5A0",
"( 	c #DE4F4F",
"_ 	c #DA4747",
": 	c #D74343",
"< 	c #D74141",
"[ 	c #D64040",
"} 	c #D84343",
"| 	c #D94646",
"1 	c #DD4B4B",
"2 	c #E25656",
"3 	c #FFC1BA",
"4 	c #F9ACA7",
"5 	c #DD5050",
"6 	c #D43C3C",
"7 	c #D23939",
"8 	c #D13636",
"9 	c #D03636",
"0 	c #D13838",
"a 	c #D74242",
"b 	c #DB4848",
"c 	c #E35656",
"d 	c #FBB2AC",
"e 	c #DE5454",
"f 	c #D64141",
"g 	c #C92B2B",
"h 	c #CF3333",
"i 	c #CD3131",
"j 	c #CD3030",
"k 	c #CC2F2F",
"l 	c #CE3131",
"m 	c #C82A2A",
"n 	c #D53F3F",
"o 	c #DA4949",
"p 	c #FCB7B0",
"q 	c #E15959",
"r 	c #C92F2F",
"s 	c #E08888",
"t 	c #C82F2F",
"u 	c #CC2D2D",
"v 	c #CB2D2D",
"w 	c #CA2D2D",
"x 	c #CA2B2B",
"y 	c #CA3939",
"z 	c #E9A4A4",
"A 	c #CA3232",
"B 	c #E05151",
"C 	c #FDBBB5",
"D 	c #E36160",
"E 	c #DE7C7C",
"F 	c #F4C6C6",
"G 	c #EDABAB",
"H 	c #C82E2E",
"I 	c #CA2C2C",
"J 	c #CA2A2A",
"K 	c #C83434",
"L 	c #F1BBBB",
"M 	c #E18585",
"N 	c #DC4B4B",
"O 	c #E25454",
"P 	c #E55959",
"Q 	c #EF8783",
"R 	c #CF3434",
"S 	c #C72C2C",
"T 	c #EBACAC",
"U 	c #EAA8A8",
"V 	c #C72D2D",
"W 	c #C83030",
"X 	c #EFB6B6",
"Y 	c #C72E2E",
"Z 	c #CF3535",
"` 	c #D43B3B",
" .	c #E35858",
"..	c #E66C6A",
"+.	c #D23838",
"@.	c #CE3232",
"#.	c #EEB1B1",
"$.	c #EAA4A4",
"%.	c #C62C2C",
"&.	c #EDAEAE",
"*.	c #EFB3B3",
"=.	c #CB2C2C",
"-.	c #E25757",
";.	c #FFC0BA",
">.	c #DF5352",
",.	c #D13737",
"'.	c #C92A2A",
").	c #C83131",
"!.	c #E89E9E",
"~.	c #E9A5A5",
"{.	c #F0BABA",
"].	c #C73131",
"^.	c #CC3030",
"/.	c #E25555",
"(.	c #FAAEA8",
"_.	c #CD2F2F",
":.	c #C92929",
"<.	c #C93434",
"[.	c #F2BEBE",
"}.	c #C93535",
"|.	c #CB2B2B",
"1.	c #D03535",
"2.	c #F49792",
"3.	c #C83535",
"4.	c #F0B9B9",
"5.	c #C83232",
"6.	c #EE7F7C",
"7.	c #DD4D4D",
"8.	c #C92828",
"9.	c #CA3838",
"0.	c #F0B8B8",
"a.	c #CA2929",
"b.	c #E86867",
"c.	c #DD4E4E",
"d.	c #CA3A3A",
"e.	c #F1BDBD",
"f.	c #C72F2F",
"g.	c #EFB7B7",
"h.	c #E05050",
"i.	c #CC3D3D",
"j.	c #F2C0C0",
"k.	c #C73030",
"l.	c #CF3232",
"m.	c #D33B3B",
"n.	c #D94747",
"o.	c #E45757",
"p.	c #E55A5A",
"q.	c #D84242",
"r.	c #DA6E6E",
"s.	c #C62F2F",
"t.	c #DA7474",
"u.	c #CB2E2E",
"v.	c #E15454",
"w.	c #E15252",
"x.	c #DC4949",
"y.	c #CB3131",
"z.	c #DC7777",
"A.	c #C93838",
"B.	c #DB7272",
"C.	c #DB4949",
"D.	c #CD3232",
"E.	c #DC4A4A",
"F.	c #DA4646",
"G.	c #D74040",
"H.	c #DC4D4D",
"                                                                ",
"                                                                ",
"                                                                ",
"                                                                ",
"                      . . . . . . . . . .                       ",
"                    . + @ # $ % & * = - ; .                     ",
"                  . + > , ' ) ! ! ! ~ { ] ^ .                   ",
"                . + / ( _ : < [ [ < } | 1 { 2 .                 ",
"              . 3 4 5 < 6 7 8 9 9 8 0 6 a b { c .               ",
"            . 3 d e f g h i j k k j l i m n o { 2 .             ",
"          . 3 p q f r s t u v w w v x y z A [ b B ^ .           ",
"        . 3 C D f x E F G H I I I J K L F M x f N O P .         ",
"        . 3 Q | 6 R S T F U V x J W X F T Y Z ` | {  ..         ",
"        . 3 ..} +.@.u Y #.F $.%.V &.F *.H =.i +.} ' -..         ",
"        . ;.>.f ,.j =.'.).X F !.~.F {.].J w ^.8 a ! /..         ",
"        . (.! [ 8 _.=.x :.<.L F F [.}.:.|.w k 1.[ 1 /..         ",
"        . 2.! [ 8 _.=.x :.3.4.F F {.5.:.|.w k 1.[ 1 /..         ",
"        . 6.7.f ,.l =.8.9.L F X 0.F 0.].a.w j 8 a ! /..         ",
"        . b.c.} +.@.J d.e.F 0.f.f.0.F g.).x i +.} ' -..         ",
"        . - h.| 6 i i.j.F {.5.:.:.k.g.F X ).l.m.n.{ o..         ",
"        . p.O ) q.^.r.F L }.'.I I '.s.X F t.u.< 1 v.; .         ",
"          . o.w.x.< y.z.A.|.v v v v =.f.B.y.f C.,  ..           ",
"            . 2 { x.< u.@.D.j k k j @.@.u f C.{ 2 .             ",
"              . 2 { E.q.6 +.,.9 9 ,.+.6 < x.{ c .               ",
"                . c w.) F.} f G.G.f } F.1 B ^ .                 ",
"                  . - O , ' 7.H.H.7.c.{ v.- .                   ",
"                    . p.- -.c 2 2 c -. .P .                     ",
"                      . . . . . . . . . .                       ",
"                                                                ",
"                                                                ",
"                                                                ",
"                                                                "};
