/* XPM */
static char * disconnect_xpm[] = {
"32 32 270 2",
"  	c None",
". 	c #4F8591",
"+ 	c #4B7A97",
"@ 	c #497694",
"# 	c #4C7C9B",
"$ 	c #589B73",
"% 	c #4F9149",
"& 	c #64A084",
"* 	c #78A9C5",
"= 	c #89BBD7",
"- 	c #89BBD8",
"; 	c #7AACC7",
"> 	c #6296B3",
", 	c #4F8F4F",
"' 	c #579C6B",
") 	c #569A61",
"! 	c #579B4D",
"~ 	c #90D095",
"{ 	c #A2DFB2",
"] 	c #99CBE2",
"^ 	c #95C7E2",
"/ 	c #8DC2DE",
"( 	c #88BEDD",
"_ 	c #96CFCA",
": 	c #93D599",
"< 	c #5BA24E",
"[ 	c #529459",
"} 	c #599E72",
"| 	c #56994A",
"1 	c #9ADCA2",
"2 	c #A2E0AF",
"3 	c #8BD397",
"4 	c #5598C3",
"5 	c #4991BD",
"6 	c #4A91BD",
"7 	c #4E93C0",
"8 	c #67BD78",
"9 	c #70CB61",
"0 	c #74CD66",
"a 	c #58A24B",
"b 	c #59A061",
"c 	c #4F8E53",
"d 	c #83C49E",
"e 	c #96D7AA",
"f 	c #77CD6A",
"g 	c #5EB281",
"h 	c #3E87B5",
"i 	c #3A85B4",
"j 	c #3C87B1",
"k 	c #4D9D9B",
"l 	c #6DC95E",
"m 	c #6ECA5D",
"n 	c #6CC65B",
"o 	c #509345",
"p 	c #588CAC",
"q 	c #94C7E2",
"r 	c #589CC6",
"s 	c #4994AE",
"t 	c #3B87AF",
"u 	c #327FAF",
"v 	c #479990",
"w 	c #6BC661",
"x 	c #60B051",
"y 	c #569A63",
"z 	c #4A7996",
"A 	c #699EBC",
"B 	c #67A6CE",
"C 	c #4B92BE",
"D 	c #3C86B4",
"E 	c #327EAF",
"F 	c #2D7AAB",
"G 	c #51A77F",
"H 	c #67BC5B",
"I 	c #4D8083",
"J 	c #497593",
"K 	c #5F9CC4",
"L 	c #579BC7",
"M 	c #478FBC",
"N 	c #3883B2",
"O 	c #2E7CAD",
"P 	c #2B7AAA",
"Q 	c #36869E",
"R 	c #66B0A5",
"S 	c #497693",
"T 	c #5D9AC2",
"U 	c #3883B3",
"V 	c #2B7AAB",
"W 	c #2A78A9",
"X 	c #419391",
"Y 	c #6CC760",
"Z 	c #63B199",
"` 	c #63A3CD",
" .	c #5892B7",
"..	c #5A9DC8",
"+.	c #3B86B5",
"@.	c #327EAE",
"#.	c #2C7BAC",
"$.	c #2B79AA",
"%.	c #307FA7",
"&.	c #459696",
"*.	c #50A196",
"=.	c #56A2A8",
"-.	c #5C9FC9",
";.	c #5E9BC3",
">.	c #4B7995",
",.	c #5488AA",
"'.	c #5EA0CB",
").	c #5197C3",
"!.	c #438BBA",
"~.	c #3A85B0",
"{.	c #4A9D8F",
"].	c #3B8D9D",
"^.	c #2F7CAD",
"/.	c #57A0B6",
"(.	c #67B49A",
"_.	c #5EA575",
":.	c #55946C",
"<.	c #497794",
"[.	c #5E9DC4",
"}.	c #539CB1",
"|.	c #67BF6D",
"1.	c #69C365",
"2.	c #3B88B0",
"3.	c #3E87B6",
"4.	c #468EBB",
"5.	c #5197C2",
"6.	c #69BF7A",
"7.	c #6CC75B",
"8.	c #519444",
"9.	c #4D7E9E",
"0.	c #64ABB3",
"a.	c #6CC666",
"b.	c #5CAE8B",
"c.	c #4C93BF",
"d.	c #5399C4",
"e.	c #5B9EC9",
"f.	c #69BA8D",
"g.	c #5AA54C",
"h.	c #599F5F",
"i.	c #4E8480",
"j.	c #559C4B",
"k.	c #6AC35A",
"l.	c #6EC95F",
"m.	c #60A9AE",
"n.	c #63ACAD",
"o.	c #68BA81",
"p.	c #59A44B",
"q.	c #519453",
"r.	c #5AA166",
"s.	c #509243",
"t.	c #5DAA4E",
"u.	c #64B855",
"v.	c #6BC55B",
"w.	c #66BA56",
"x.	c #5FAE50",
"y.	c #519447",
"z.	c #55976C",
"A.	c #5A9F63",
"B.	c #569B51",
"C.	c #509244",
"D.	c #4F9143",
"E.	c #54994F",
"F.	c #589F60",
"G.	c #BA1414",
"H.	c #BC1616",
"I.	c #E7726F",
"J.	c #E77371",
"K.	c #BA1212",
"L.	c #BB1313",
"M.	c #E46C69",
"N.	c #E46B69",
"O.	c #BA1313",
"P.	c #BB1515",
"Q.	c #DD5A59",
"R.	c #EA7C78",
"S.	c #EA7B77",
"T.	c #E16563",
"U.	c #DC5C5A",
"V.	c #EB807C",
"W.	c #E56F6D",
"X.	c #D84D4D",
"Y.	c #BC1717",
"Z.	c #DF5959",
"`.	c #D95050",
" +	c #CE3A3A",
".+	c #DF605E",
"++	c #DA5755",
"@+	c #B91212",
"#+	c #D54948",
"$+	c #DC5C5B",
"%+	c #CD3838",
"&+	c #D94F4F",
"*+	c #DE5858",
"=+	c #BD1616",
"-+	c #D94E4E",
";+	c #D54747",
">+	c #CD3939",
",+	c #DA5352",
"'+	c #D1413F",
")+	c #B81010",
"!+	c #CB3434",
"~+	c #D44646",
"{+	c #CB3535",
"]+	c #D34444",
"^+	c #D84C4C",
"/+	c #B91414",
"(+	c #D64949",
"_+	c #CE3B3B",
":+	c #D54848",
"<+	c #C72D2D",
"[+	c #D34343",
"}+	c #D74A4A",
"|+	c #D74B4B",
"1+	c #D54949",
"2+	c #CA3434",
"3+	c #C93131",
"4+	c #C72E2E",
"5+	c #D14040",
"6+	c #D74949",
"7+	c #D24242",
"8+	c #BE1E1E",
"9+	c #BD1C1C",
"0+	c #C62D2D",
"a+	c #D24141",
"b+	c #CF3C3B",
"c+	c #BC1B1B",
"d+	c #BC1A1A",
"e+	c #CC3636",
"f+	c #B91111",
"g+	c #D75150",
"h+	c #D85050",
"i+	c #C83030",
"j+	c #C52C2C",
"k+	c #D44545",
"l+	c #B81313",
"m+	c #D95554",
"n+	c #E67370",
"o+	c #CD3737",
"p+	c #D44444",
"q+	c #D03D3D",
"r+	c #CF3D3D",
"s+	c #CB3737",
"t+	c #D64A4A",
"u+	c #CB3333",
"v+	c #B81212",
"w+	c #D95756",
"x+	c #F3958F",
"y+	c #CC3939",
"z+	c #D34242",
"A+	c #CC3838",
"B+	c #CA3131",
"C+	c #DD5E5C",
"D+	c #FBABA4",
"E+	c #D44B49",
"F+	c #B81111",
"G+	c #D54646",
"H+	c #D24343",
"I+	c #CF3C3C",
"J+	c #DC5555",
"K+	c #CA3232",
"L+	c #E66F6D",
"M+	c #E97A76",
"N+	c #DA5050",
"O+	c #DF5858",
"P+	c #E15E5E",
"Q+	c #BB1414",
"R+	c #DF5757",
"S+	c #DD5353",
"T+	c #DC5252",
"U+	c #E15B5B",
"                          . + @ @ + #                           ",
"                      $ % & * = - ; > , '                       ",
"                    ) ! ~ { ] ^ / ( _ : < [                     ",
"                  } | 1 2 3 4 5 6 7 8 9 0 a b                   ",
"                  c d e f g h i j k l m m n o                   ",
"                  p q r s t u v w m m m m m x y                 ",
"                z A B C D E F G m m m m m m H I                 ",
"                J K L M N O P Q l m m m m m R S                 ",
"                J T L M U O V W X Y m m m Z ` S                 ",
"                z  ...C +.@.#.V $.%.&.*.=.-.;.>.                ",
"                  ,.'.).!.~.{.].^.u i M /.(._.:.                ",
"                  <.[...}.|.m 1.2.3.4.5.6.7.8.                  ",
"                    9.0.a.m m m b.c.d.e.f.g.h.                  ",
"                    i.j.k.m m m l.m.n.o.p.q.                    ",
"                      r.s.t.u.v.7.w.x.y.z.                      ",
"                          A.B.C.D.E.F.                          ",
"                    G.G.                H.G.                    ",
"                  G.I.J.K.            L.M.N.O.                  ",
"                P.Q.R.S.T.K.        L.U.V.W.X.O.                ",
"                Y.Z.`. +.+++@+    K.#+$+%+&+*+=+                ",
"                  G.-+;+>+,+'+@+)+!+~+{+]+^+G.                  ",
"                    /+X.(+_+:+<+<+]+{+[+}+G.                    ",
"                      G.|+1+{+2+3+4+5+6+O.                      ",
"                        O.7+2+8+9+0+a+O.                        ",
"                        @+b+3+c+d+<+e+f+                        ",
"                      O.g+h+i+<+j+0+k+e+O.                      ",
"                    l+m+n+o+p+q+r+5+s+t+u+v+                    ",
"                  @+w+x+y+;+k+)+/+k+z+A+|+B+                    ",
"                l+C+D+E+;+;+F+    O.G+H+I+J+K+                  ",
"                P.L+M+N+(+f+        L.:+&+O+P+K.                ",
"                  Q+R+S+O.            G.T+U+Q+                  ",
"                    Q+G.                P.P.                    "};
