/* XPM */
static char * file_xpm[] = {
"32 32 129 2",
"  	c None",
". 	c #8E97A7",
"+ 	c #FBFCFC",
"@ 	c #FCFDFD",
"# 	c #FDFDFD",
"$ 	c #FDFEFE",
"% 	c #FEFEFE",
"& 	c #FEFFFF",
"* 	c #FFFFFF",
"= 	c #E7EBEC",
"- 	c #D6DDDF",
"; 	c #F2F4F5",
"> 	c #DEE4E5",
", 	c #D5DBDE",
"' 	c #FAFBFB",
") 	c #E0E5E6",
"! 	c #D2D9DC",
"~ 	c #D0D6DA",
"{ 	c #CDD4D8",
"] 	c #ACB3BF",
"^ 	c #A4ACB8",
"/ 	c #A7B0BB",
"( 	c #A5ACB9",
"_ 	c #C5CDD6",
": 	c #A2AAB7",
"< 	c #DDE3E4",
"[ 	c #DDE2E4",
"} 	c #DBE1E3",
"| 	c #FCFCFC",
"1 	c #DBE0E2",
"2 	c #E8ECED",
"3 	c #DCE2E3",
"4 	c #D9DFE1",
"5 	c #EFF2F2",
"6 	c #D9DFE0",
"7 	c #D7DCDF",
"8 	c #DCE1E3",
"9 	c #D8DEE1",
"0 	c #D3D8DC",
"a 	c #C4CDD5",
"b 	c #A1AAB7",
"c 	c #DAE0E2",
"d 	c #D6DCDF",
"e 	c #D1D7DB",
"f 	c #C5CDD5",
"g 	c #D8DEE0",
"h 	c #D3DADD",
"i 	c #CED4D9",
"j 	c #C4CDD6",
"k 	c #A1A9B7",
"l 	c #D0D6DB",
"m 	c #CCD2D7",
"n 	c #C3CCD5",
"o 	c #D4D9DD",
"p 	c #CED3D9",
"q 	c #C8CFD5",
"r 	c #C4CCD5",
"s 	c #C3CBD4",
"t 	c #A0A8B6",
"u 	c #CAD1D6",
"v 	c #C7CDD4",
"w 	c #C3CBD5",
"x 	c #C2CAD3",
"y 	c #CDD3D8",
"z 	c #C8CED5",
"A 	c #C6CCD4",
"B 	c #DDE4E5",
"C 	c #C0C8D2",
"D 	c #9EA7B5",
"E 	c #C9CFD5",
"F 	c #C6CDD3",
"G 	c #C5CBD3",
"H 	c #C4CBD5",
"I 	c #C0C8D1",
"J 	c #BEC6D0",
"K 	c #9EA6B4",
"L 	c #C5CAD2",
"M 	c #DBE2E4",
"N 	c #9EA7B4",
"O 	c #A1A9B6",
"P 	c #9FA8B5",
"Q 	c #9EA6B5",
"R 	c #979FAF",
"S 	c #C5CCD3",
"T 	c #C4CAD1",
"U 	c #C4CBD3",
"V 	c #D4DBDE",
"W 	c #DCE2E4",
"X 	c #DDE2E3",
"Y 	c #DBE2E3",
"Z 	c #D8DDE0",
"` 	c #D4DADE",
" .	c #D1D7DA",
"..	c #CCD2D8",
"+.	c #C4CAD2",
"@.	c #C3CAD2",
"#.	c #DAE0E1",
"$.	c #CBD2D8",
"%.	c #C6CDD4",
"&.	c #C4CBD2",
"*.	c #C3C9D1",
"=.	c #CBD1D7",
"-.	c #D3D9DD",
";.	c #D7DCE0",
">.	c #D7DDE1",
",.	c #D7DDE0",
"'.	c #D5DCDE",
").	c #D6DCDE",
"!.	c #D3D9DC",
"~.	c #CFD5D9",
"{.	c #C6CCD3",
"].	c #C3C9D0",
"^.	c #CAD0D6",
"/.	c #CFD5DB",
"(.	c #D2D7DB",
"_.	c #D2D8DC",
":.	c #D2D8DD",
"<.	c #CFD6DB",
"[.	c #CAD0D5",
"}.	c #C7CDD5",
"|.	c #C8CED4",
"1.	c #C9D0D6",
"2.	c #CBD1D8",
"3.	c #CDD2D9",
"4.	c #CCD3D8",
"5.	c #C9CFD6",
"6.	c #C5CBD2",
"7.	c #C9CED5",
"8.	c #C6CBD3",
"        . . . . . . . . . . . . . . . . . . .                   ",
"        . + @ @ # # # $ $ % % % % % & * * = - .                 ",
"        . % * * * * * * * * * * * * * * ; > > , .               ",
"        . % * * * * & % % % % % $ $ $ ' ) > > > ! .             ",
"        . % % > > > > > > > > > > > > > > > > > > ~ .           ",
"        . % % > > > > > > > > > > > > > > > > > > > { .         ",
"        . % % > ] ^ ^ ^ ^ ^ ^ ^ ^ ^ ^ ^ ^ ^ ^ / > > > .         ",
"        . % $ > ( _ _ _ _ _ _ _ _ _ _ _ _ _ _ : > < [ .         ",
"        . % $ > ( _ _ _ _ _ _ _ _ _ _ _ _ _ _ : > < } .         ",
"        . % | > ( _ _ _ _ _ _ _ _ _ _ _ _ _ _ : > < 1 .         ",
"        . % 2 > ( _ _ _ _ _ _ _ _ _ _ _ _ _ _ : < 3 4 .         ",
"        . 5 > > ( _ _ _ _ _ _ _ _ _ _ _ _ _ _ : < 3 6 .         ",
"        . > > > ( _ _ _ _ _ _ _ _ _ _ _ _ _ _ : < } 7 .         ",
"        . > > > ( _ _ _ _ _ _ _ _ _ _ _ _ _ _ : 3 4 , .         ",
"        . > > > ( _ _ _ _ _ _ _ _ _ _ _ _ _ _ : 8 9 0 .         ",
"        . > > > ( _ _ _ _ _ _ _ _ _ _ _ _ _ a b c d e .         ",
"        . > > > ( _ _ _ _ _ _ _ _ _ _ _ _ _ f b g h i .         ",
"        . > > > ( _ _ _ _ _ _ _ _ _ _ _ _ a j k - l m .         ",
"        . > > > ( _ _ _ _ _ _ _ _ _ _ _ _ _ n k o p q .         ",
"        . > > > ( _ _ _ _ _ _ _ _ _ _ a f r s t l u v .         ",
"        . < > > ( _ _ _ _ _ _ _ _ _ a a a w x t y z A .         ",
"        . B < > ( _ _ _ _ _ _ _ _ _ f r w x C D E F G .         ",
"        . 3 < > ( _ a _ _ _ a _ _ _ a H x I J K v G L .         ",
"        . 4 M < N : : : : : : : : : b O t P Q R S T U .         ",
"        . V 9 c M W 3 X W < 3 Y Y c Z `  ...E S +.T @..         ",
"        . e o d 9 #.c } 1 c } #.9 d o ~ $.E %.&.*.*.&..         ",
"        . =.i e -., d ;.>.,.'.).!.e ~.m z {.+.].*.@.+..         ",
"        . v ^.=.i /.(.e _.:.e <.i ..[.}.{.U +.*.*.@.+..         ",
"        . G {.|.1.^.2...3.4...=.5.v {.&.T *.*.*.+.+.&..         ",
"        . +.&.6.S v }.|.7.z }.{.{.6.T +.T *.@.*.*.+.U .         ",
"        . *.*.T &.6.G S 8.8.G 6.L &.T +.T *.*.*.+.6.6..         ",
"        . . . . . . . . . . . . . . . . . . . . . . . .         "};
