/* XPM */
static char * find_xpm[] = {
"32 32 163 2",
"  	c None",
". 	c #4C4C4C",
"+ 	c #505050",
"@ 	c #535353",
"# 	c #4D4D4D",
"$ 	c #4E4E4E",
"% 	c #5F5F5F",
"& 	c #797979",
"* 	c #858585",
"= 	c #878787",
"- 	c #777777",
"; 	c #848484",
"> 	c #676868",
", 	c #575A5C",
"' 	c #525A5F",
") 	c #535A60",
"! 	c #686969",
"~ 	c #767676",
"{ 	c #51575B",
"] 	c #5489AE",
"^ 	c #74B0DA",
"/ 	c #99C7E7",
"( 	c #92C3E6",
"_ 	c #82B7DD",
": 	c #608EB1",
"< 	c #52565A",
"[ 	c #838383",
"} 	c #787878",
"| 	c #50616D",
"1 	c #83B7DD",
"2 	c #C1DEF1",
"3 	c #D3E8F6",
"4 	c #BEDCF1",
"5 	c #88BDE2",
"6 	c #70AEDD",
"7 	c #68ABDA",
"8 	c #64A3D1",
"9 	c #515F68",
"0 	c #606060",
"a 	c #51575C",
"b 	c #78B1D9",
"c 	c #D2E7F6",
"d 	c #CBE3F4",
"e 	c #96C4E6",
"f 	c #74B1DE",
"g 	c #77B4DF",
"h 	c #78B4DF",
"i 	c #75B2DD",
"j 	c #71AFDD",
"k 	c #68A5D1",
"l 	c #525659",
"m 	c #7B7B7B",
"n 	c #666767",
"o 	c #6295B7",
"p 	c #CBE4F4",
"q 	c #C4E0F3",
"r 	c #81B8E1",
"s 	c #7AB5E0",
"t 	c #80B9E2",
"u 	c #84BCE2",
"v 	c #85BCE2",
"w 	c #82B9E2",
"x 	c #7CB6E1",
"y 	c #5F8BAA",
"z 	c #686869",
"A 	c #868686",
"B 	c #565A5D",
"C 	c #87BBE0",
"D 	c #BDDBF0",
"E 	c #78B2DD",
"F 	c #84BBE3",
"G 	c #8DC0E5",
"H 	c #91C3E6",
"I 	c #91C4E6",
"J 	c #8EC2E6",
"K 	c #86BCE3",
"L 	c #7CB7E0",
"M 	c #70ADD9",
"N 	c #585A5D",
"O 	c #555555",
"P 	c #525B60",
"Q 	c #95C4E6",
"R 	c #78B3DE",
"S 	c #8BC0E5",
"T 	c #95C6E8",
"U 	c #9ECCEA",
"V 	c #9ECBEC",
"W 	c #98C8EA",
"X 	c #82BBE3",
"Y 	c #77B3DF",
"Z 	c #545A5D",
"` 	c #71AFDB",
" .	c #6BABDA",
"..	c #91C3E7",
"+.	c #9DCAEA",
"@.	c #A0CCEB",
"#.	c #95C6E7",
"$.	c #88BDE4",
"%.	c #5DA3D4",
"&.	c #6AACDB",
"*.	c #A1CDEB",
"=.	c #94C5E7",
"-.	c #79B0DA",
";.	c #585A5C",
">.	c #4F4F4F",
",.	c #7C7C7C",
"'.	c #578BAF",
").	c #68AADA",
"!.	c #74B2DE",
"~.	c #8CBFE6",
"{.	c #97C7E8",
"].	c #A0CCEC",
"^.	c #9AC9E9",
"/.	c #8FC2E5",
"(.	c #678DA9",
"_.	c #686868",
":.	c #626262",
"<.	c #63A4D3",
"[.	c #6FB0DB",
"}.	c #7CB5E0",
"|.	c #8DC0E6",
"1.	c #93C5E8",
"2.	c #94C4E8",
"3.	c #7AB0D8",
"4.	c #525658",
"5.	c #51626F",
"6.	c #67A7D5",
"7.	c #72B1DD",
"8.	c #7BB6E0",
"9.	c #85BCE3",
"0.	c #86BDE3",
"a.	c #7AB0D9",
"b.	c #545F67",
"c.	c #2B2B2B",
"d.	c #757575",
"e.	c #608FAF",
"f.	c #70AEDB",
"g.	c #76B3DF",
"h.	c #79B6DF",
"i.	c #78B3DB",
"j.	c #678FAB",
"k.	c #535659",
"l.	c #292929",
"m.	c #3A3A3A",
"n.	c #474747",
"o.	c #545B5E",
"p.	c #555A5F",
"q.	c #585A5B",
"r.	c #676767",
"s.	c #3C3C3C",
"t.	c #464646",
"u.	c #444444",
"v.	c #2C2C2C",
"w.	c #4B4B4B",
"x.	c #3D3D3D",
"y.	c #2A2A2A",
"z.	c #515151",
"A.	c #3E3E3E",
"B.	c #434343",
"C.	c #404040",
"D.	c #414141",
"E.	c #282828",
"F.	c #424242",
"                                                                ",
"                                                                ",
"                                . + @ @ + #                     ",
"                            $ % & * = = * & % $                 ",
"                          + - ; > , ' ) , ! ; ~ +               ",
"                        + ; ~ { ] ^ / ( _ : < - [ +             ",
"                      $ } - | 1 2 3 4 5 6 7 8 9 - ~ $           ",
"                      0 ; a b c d e f g h i j k l * %           ",
"                    $ m n o p q r s t u v w x f y z & #         ",
"                    + A B C D E s F G H I J K L M N * +         ",
"                    O = P Q R f t S T U V W J X Y Z = @         ",
"                    O = P `  .Y F ..+.    @.#.$.s Z = @         ",
"                    + A B %.&.Y F H U     *.=.$.-.;.* +         ",
"                    >.,.n '.).!.w ~.{.].@.^./.F (._.& .         ",
"                      :.; { <.[.}.v |.1.2./.$.3.4.* %           ",
"                      $ & ~ 5.6.7.8.w 9.0.X a.b.- - $           ",
"                      c.$ * d.< e.f.g.h.i.j.k.- ; +             ",
"                    l.m.n.>.} ; n ;.o.p.q.r.; } +               ",
"                  l.s.t.u.v.w.:.,.A = = A m 0 $                 ",
"                l.x.t.u.y.      + z.O O z.>.                    ",
"              l.A.t.B.y.                                        ",
"            l.A.t.B.y.                                          ",
"          l.C.t.B.y.                                            ",
"        y.D.t.B.c.                                              ",
"      l.D.t.B.c.                                                ",
"    E.F.t.B.c.                                                  ",
"    E.m.B.c.                                                    ",
"      E.l.                                                      ",
"                                                                ",
"                                                                ",
"                                                                ",
"                                                                "};
