/* XPM */
static char * folder_xpm[] = {
"32 32 339 2",
"  	c None",
". 	c #9E9751",
"+ 	c #A29A51",
"@ 	c #9E9651",
"# 	c #9C9551",
"$ 	c #ACA351",
"% 	c #D0C252",
"& 	c #D1C352",
"* 	c #CEC152",
"= 	c #A09951",
"- 	c #9B9451",
"; 	c #B5AB52",
"> 	c #D0C251",
", 	c #CABE51",
"' 	c #9E9750",
") 	c #9D9651",
"! 	c #BEB252",
"~ 	c #D0C351",
"{ 	c #C6BA51",
"] 	c #9E974F",
"^ 	c #9D9650",
"/ 	c #C4B751",
"( 	c #CFC151",
"_ 	c #CEC050",
": 	c #CDBF4F",
"< 	c #CDBF4E",
"[ 	c #CDC04E",
"} 	c #BEB34E",
"| 	c #A59C4D",
"1 	c #A49C4D",
"2 	c #A59C4E",
"3 	c #A49C4E",
"4 	c #A49C4F",
"5 	c #9D9550",
"6 	c #A09851",
"7 	c #CFC150",
"8 	c #CABC4C",
"9 	c #C9BB4B",
"0 	c #C8BA4A",
"a 	c #C8BB4A",
"b 	c #C7B94A",
"c 	c #CABD4D",
"d 	c #CDBE4E",
"e 	c #BCB150",
"f 	c #9C9650",
"g 	c #A39B4F",
"h 	c #C9BC4B",
"i 	c #C5B749",
"j 	c #C1B445",
"k 	c #BFB244",
"l 	c #BFB242",
"m 	c #BFB143",
"n 	c #BFB243",
"o 	c #C0B344",
"p 	c #C1B444",
"q 	c #C4B747",
"r 	c #C8BA4B",
"s 	c #BBAF50",
"t 	c #9C9550",
"u 	c #ADA24F",
"v 	c #CBBD4D",
"w 	c #C5B748",
"x 	c #BAAD3F",
"y 	c #B6A93C",
"z 	c #B5A83B",
"A 	c #B5A83A",
"B 	c #B5A93B",
"C 	c #B7AA3C",
"D 	c #BAAC3D",
"E 	c #BEB142",
"F 	c #C4B748",
"G 	c #CABD4C",
"H 	c #A19950",
"I 	c #9E9856",
"J 	c #AAA25D",
"K 	c #A9A15C",
"L 	c #ABA35B",
"M 	c #AEA55B",
"N 	c #ADA55A",
"O 	c #ACA359",
"P 	c #ABA358",
"Q 	c #AAA258",
"R 	c #A69D4C",
"S 	c #AEA336",
"T 	c #B4A639",
"U 	c #B9AC3E",
"V 	c #C1B345",
"W 	c #C9BA4A",
"X 	c #CEC04E",
"Y 	c #9F9750",
"Z 	c #ACA45E",
"` 	c #F7EA89",
" .	c #F7EA88",
"..	c #F7E988",
"+.	c #F6EA89",
"@.	c #DACF78",
"#.	c #A49B50",
"$.	c #AEA238",
"%.	c #B6A93B",
"&.	c #BFB043",
"*.	c #C8B949",
"=.	c #CABD4E",
"-.	c #9E964F",
";.	c #A8A15C",
">.	c #F8EC90",
",.	c #FEFAD5",
"'.	c #FFFDDF",
").	c #FFFDDE",
"!.	c #FFFCDD",
"~.	c #FEFCDC",
"{.	c #FDFBD9",
"].	c #F7ED9B",
"^.	c #F5E885",
"/.	c #F5E785",
"(.	c #F5E886",
"_.	c #F5E986",
":.	c #E5DB7E",
"<.	c #A69D4F",
"[.	c #B4A73B",
"}.	c #C7B849",
"|.	c #C3B64E",
"1.	c #A39C59",
"2.	c #ECE083",
"3.	c #F9EE9A",
"4.	c #FFFCDB",
"5.	c #FEFAD0",
"6.	c #FDF8C6",
"7.	c #FBF5BC",
"8.	c #F9F2AE",
"9.	c #F7EEA2",
"0.	c #F5EB95",
"a.	c #F4E888",
"b.	c #F0E37C",
"c.	c #F1E27B",
"d.	c #EFE178",
"e.	c #F0E279",
"f.	c #F2E37B",
"g.	c #F3E57F",
"h.	c #F4E783",
"i.	c #AFA659",
"j.	c #BEB042",
"k.	c #C7B949",
"l.	c #BAB04E",
"m.	c #CDC371",
"n.	c #FAF1AA",
"o.	c #FDF9C8",
"p.	c #FCF6BF",
"q.	c #FBF4B6",
"r.	c #FAF1AB",
"s.	c #F9EFA2",
"t.	c #F8EE97",
"u.	c #F7EB8E",
"v.	c #F6E887",
"w.	c #F6E987",
"x.	c #F5E784",
"y.	c #F2E47F",
"z.	c #EFE279",
"A.	c #ECDE74",
"B.	c #EADC6E",
"C.	c #E8D96A",
"D.	c #E7D867",
"E.	c #E5D665",
"F.	c #E5D564",
"G.	c #E7D767",
"H.	c #EEE077",
"I.	c #CDC269",
"J.	c #AEA342",
"K.	c #BDAF41",
"L.	c #B1A74E",
"M.	c #ACA55E",
"N.	c #F6E988",
"O.	c #F7E888",
"P.	c #F4E680",
"Q.	c #F0E27B",
"R.	c #EDDF72",
"S.	c #E8D969",
"T.	c #E4D461",
"U.	c #E0D15A",
"V.	c #DFCE56",
"W.	c #DCCD53",
"X.	c #DCCB51",
"Y.	c #DCCC50",
"Z.	c #DDCD54",
"`.	c #E1D25C",
" +	c #E9DA69",
".+	c #E5D872",
"++	c #AEA44D",
"@+	c #BFB142",
"#+	c #C7BA49",
"$+	c #A89F4D",
"%+	c #A49D59",
"&+	c #F2E686",
"*+	c #F4E784",
"=+	c #F5E783",
"-+	c #F3E681",
";+	c #F1E47D",
">+	c #EDDF75",
",+	c #E9DC6D",
"'+	c #E4D662",
")+	c #DFD059",
"!+	c #DCCC51",
"~+	c #DBCA4C",
"{+	c #D7C749",
"]+	c #D6C748",
"^+	c #D9C748",
"/+	c #D8C647",
"(+	c #D9C849",
"_+	c #E3D35E",
":+	c #EBDC6E",
"<+	c #B1A752",
"[+	c #C0B142",
"}+	c #C6B849",
"|+	c #A1994D",
"1+	c #D7CC77",
"2+	c #F6EA88",
"3+	c #F4E883",
"4+	c #F2E580",
"5+	c #F0E27C",
"6+	c #ECDF73",
"7+	c #EADB6D",
"8+	c #E6D766",
"9+	c #E1D15C",
"0+	c #D9C94D",
"a+	c #D7C748",
"b+	c #D7C546",
"c+	c #D7C545",
"d+	c #D6C545",
"e+	c #D6C543",
"f+	c #D6C544",
"g+	c #DACA4C",
"h+	c #DFCF56",
"i+	c #E8D867",
"j+	c #C3B85B",
"k+	c #BAAC44",
"l+	c #C8BA49",
"m+	c #9F984B",
"n+	c #B4AC63",
"o+	c #F3E682",
"p+	c #EDDF74",
"q+	c #EADC6D",
"r+	c #E4D560",
"s+	c #E2D25C",
"t+	c #DFD055",
"u+	c #DCCB50",
"v+	c #D9C94B",
"w+	c #D7C747",
"x+	c #D6C645",
"y+	c #D5C444",
"z+	c #D7C645",
"A+	c #D8C848",
"B+	c #DDCD52",
"C+	c #E4D460",
"D+	c #DCCE67",
"E+	c #B5AA4C",
"F+	c #C7B848",
"G+	c #9E964C",
"H+	c #A59E5A",
"I+	c #F5E888",
"J+	c #F6E884",
"K+	c #EDDE72",
"L+	c #E7D868",
"M+	c #E3D45E",
"N+	c #E1D058",
"O+	c #DECD53",
"P+	c #DDCD50",
"Q+	c #DACA4B",
"R+	c #D8C748",
"S+	c #D9C848",
"T+	c #D9C747",
"U+	c #D8C646",
"V+	c #D8C645",
"W+	c #D7C646",
"X+	c #DCCC4E",
"Y+	c #E0D25B",
"Z+	c #E8DA6B",
"`+	c #B3A851",
" @	c #C2B549",
".@	c #A1984C",
"+@	c #A19B58",
"@@	c #E0D47B",
"#@	c #EDDE71",
"$@	c #E7D866",
"%@	c #E2D25B",
"&@	c #DECE52",
"*@	c #DDCC4F",
"=@	c #DCCB4E",
"-@	c #DBCB4E",
";@	c #DBCB4D",
">@	c #DBCA4D",
",@	c #DCCA4D",
"'@	c #DACA4E",
")@	c #DBCA4E",
"!@	c #DAC94D",
"~@	c #E2D35C",
"{@	c #BCB157",
"]@	c #BCAF4B",
"^@	c #A0964B",
"/@	c #BEB469",
"(@	c #F4E581",
"_@	c #EFE179",
":@	c #ECDD6F",
"<@	c #E5D662",
"[@	c #E3D460",
"}@	c #E4D45E",
"|@	c #E3D45F",
"1@	c #E3D35F",
"2@	c #E4D45F",
"3@	c #E2D35E",
"4@	c #D2C667",
"5@	c #B1A74F",
"6@	c #A79F5B",
"7@	c #F6E986",
"8@	c #F4E682",
"9@	c #F1E47C",
"0@	c #F0E179",
"a@	c #EEE075",
"b@	c #ECDF75",
"c@	c #ECDE73",
"d@	c #ECDF74",
"e@	c #EDE075",
"f@	c #F0E379",
"g@	c #EADD7B",
"h@	c #A9A156",
"i@	c #A19A58",
"j@	c #A8A05B",
"k@	c #A9A25C",
"l@	c #A9A25B",
"m@	c #AAA35A",
"n@	c #ACA45A",
"o@	c #ACA558",
"p@	c #ADA559",
"q@	c #ADA458",
"r@	c #ADA558",
"s@	c #ACA458",
"t@	c #ADA658",
"u@	c #ADA459",
"v@	c #ACA459",
"w@	c #ACA45B",
"x@	c #A09955",
"                                                                ",
"                                                                ",
"                                                                ",
"                                                                ",
"                      . + + + + + @                             ",
"                  # $ % & & & & & * =                           ",
"                - ; & > > > > > > > , '                         ",
"              ) ! > > > > ~ ~ ~ ~ ~ ~ { ]                       ",
"            ^ / ( _ _ : < [ [ [ [ [ [ [ } | | | | 1 2 3 4 5     ",
"            6 7 [ 8 9 0 a 0 0 0 0 0 0 0 0 0 0 0 0 b 9 c d e f   ",
"            g : h i j k l m m m m m m m m m m m n o p q r d s t ",
"            u v w n x y z A A A A A A A A A A A B C D E F G _ H ",
"I J J J J K L M N O P Q Q Q Q Q Q Q Q Q Q Q Q Q R S T U V W X Y ",
"Z ` ` ` ` ` ` ` ` ` ` ` ` ` ` ` `  . ...` +.` ` @.#.$.%.&.*.=.-.",
";.>.,.'.'.'.'.'.'.'.'.'.'.'.).).!.~.{.].^./.^.(._.:.<.[.&.}.|.-.",
"1.2.3.!.'.'.'.'.'.'.'.4.5.6.7.8.9.0.a.b.c.d.e.f.g.h.i.[.j.k.l.  ",
"  m.` n.o.p.q.r.s.t.u...v.w.x.y.z.A.B.C.D.E.F.G.B.H.I.J.K.k.L.  ",
"  M.` ` ` ` ` N. .O.w.(./.P.Q.R.S.T.U.V.W.X.Y.Z.`. +.+++@+#+$+  ",
"  %+&+` `  .` w._.*+=+-+;+>+,+'+)+!+~+{+]+^+/+(+Y._+:+<+[+}+|+  ",
"    1+2+ .N._.3+4+5+H.6+7+8+9+Z.0+a+b+c+d+e+f+c+g+h+i+j+k+l+m+  ",
"    n+ .N.(.o+f.p+q+G.r+s+t+u+v+w+x+f+y+y+f+f+z+A+B+C+D+E+F+G+  ",
"    H+I+..J+;+K+L+M+N+O+P+Q+R+S+T+U+V+c+c+c+c+W+R+X+Y+Z+`+ @.@  ",
"    +@@@N.x.;+#@$@%@t+&@*@=@-@;@>@,@'@)@)@!@!@>@-@O+~@ +{@]@^@  ",
"      /@N.(.(@_@:@i+<@C+[@}@|@|@_+_+|@1@1@2@_+_+3@T.$@B.4@5@    ",
"      6@ .N.7@8@9@0@a@b@p+A.A.A.p+c@A.p+d@d@d@c@d@A.e@f@g@h@    ",
"      i@j@k@l@m@L n@o@p@q@q@q@q@q@r@q@s@s@r@s@s@s@t@u@v@w@x@    ",
"                                                                ",
"                                                                ",
"                                                                ",
"                                                                ",
"                                                                ",
"                                                                "};
