/* XPM */
static char * help_xpm[] = {
"32 32 147 2",
"  	c None",
". 	c #92883A",
"+ 	c #978C3D",
"@ 	c #9C913E",
"# 	c #9F9441",
"$ 	c #978D3D",
"% 	c #95893B",
"& 	c #988D3E",
"* 	c #E7DD98",
"= 	c #FAF1AD",
"- 	c #F9EC91",
"; 	c #F6E879",
"> 	c #F7E870",
", 	c #EBDB68",
"' 	c #A69B45",
") 	c #A89C46",
"! 	c #FBF4BD",
"~ 	c #F4E78B",
"{ 	c #E3CF46",
"] 	c #E3CF43",
"^ 	c #E3CF42",
"/ 	c #E3CF44",
"( 	c #E9D54D",
"_ 	c #F5E368",
": 	c #C5B654",
"< 	c #978B3D",
"[ 	c #F8F0AE",
"} 	c #F0E38A",
"| 	c #E5D148",
"1 	c #E9D751",
"2 	c #E9D650",
"3 	c #E3D046",
"4 	c #E2CD41",
"5 	c #E4D045",
"6 	c #F4E466",
"7 	c #A39643",
"8 	c #D5C864",
"9 	c #F3E791",
"0 	c #E9D750",
"a 	c #F7E66D",
"b 	c #E4D464",
"c 	c #E7D766",
"d 	c #F6E66B",
"e 	c #E7D44C",
"f 	c #E2CE41",
"g 	c #E7D34B",
"h 	c #ECDB69",
"i 	c #95893C",
"j 	c #968A3B",
"k 	c #EEE070",
"l 	c #E2CF42",
"m 	c #E2CD42",
"n 	c #F7E66A",
"o 	c #9D903F",
"p 	c #93893B",
"q 	c #938A3A",
"r 	c #AB9E45",
"s 	c #F5E467",
"t 	c #E2CE42",
"u 	c #F4E366",
"v 	c #9A8E3D",
"w 	c #978D3C",
"x 	c #F6E669",
"y 	c #E3D047",
"z 	c #EDDE69",
"A 	c #968B3B",
"B 	c #938A3B",
"C 	c #E9D968",
"D 	c #E6D248",
"E 	c #F0DF5D",
"F 	c #A19641",
"G 	c #F0E169",
"H 	c #EAD852",
"I 	c #EFDD5C",
"J 	c #BFB151",
"K 	c #918638",
"L 	c #E4D572",
"M 	c #F2E161",
"N 	c #DBCD60",
"O 	c #CCBF59",
"P 	c #93893A",
"Q 	c #9B903E",
"R 	c #FAEE99",
"S 	c #E4CF43",
"T 	c #E6D34A",
"U 	c #F3E36B",
"V 	c #958A3B",
"W 	c #908639",
"X 	c #A09542",
"Y 	c #F6E998",
"Z 	c #F5EB9F",
"` 	c #E8D64E",
" .	c #F8E76C",
"..	c #B2A64B",
"+.	c #B7A94D",
"@.	c #F6E672",
"#.	c #EDDE72",
"$.	c #EDDB58",
"%.	c #F9E86F",
"&.	c #C2B554",
"*.	c #928839",
"=.	c #9B913E",
"-.	c #F5E468",
";.	c #E5D248",
">.	c #F9E970",
",.	c #BCAF50",
"'.	c #93883A",
").	c #B9AC4E",
"!.	c #ECDB57",
"~.	c #E4D146",
"{.	c #F8E66C",
"].	c #BDAF50",
"^.	c #BAAD4F",
"/.	c #EBD954",
"(.	c #E8D64F",
"_.	c #E4D565",
":.	c #938839",
"<.	c #ECD956",
"[.	c #D8C95F",
"}.	c #A29641",
"|.	c #F5E469",
"1.	c #B3A74D",
"2.	c #B0A249",
"3.	c #B8AB4D",
"4.	c #958A3C",
"5.	c #968B3C",
"6.	c #CFC470",
"7.	c #F7EB8F",
"8.	c #F4E469",
"9.	c #C5B755",
"0.	c #F8EA8C",
"a.	c #E3CE43",
"b.	c #F6E56B",
"c.	c #978B3C",
"d.	c #988D3D",
"e.	c #E3CE41",
"f.	c #F7E66B",
"g.	c #998F3E",
"h.	c #92863A",
"i.	c #CEC05A",
"j.	c #F7E76F",
"k.	c #F7E76D",
"l.	c #D3C55D",
"m.	c #918739",
"n.	c #978C3C",
"o.	c #988C3D",
"p.	c #928738",
"                                                                ",
"                                                                ",
"                                                                ",
"                                                                ",
"                        . + @ # $ %                             ",
"                      & * = - ; > , '                           ",
"                    ) ! ~ { ] ^ / ( _ : .                       ",
"                  < [ } ^ | 1 2 3 4 5 6 7                       ",
"                  8 9 4 0 a b c d e f g h i                     ",
"                j k l m n o p q r s t 4 u v                     ",
"                w x f y z A     B C D f E F                     ",
"                % G H I J       K L g m M #                     ",
"                  F N O P       Q R S T U V                     ",
"                    W         X Y Z `  ...                      ",
"                            +.@.#.$.%.&.*.                      ",
"                          =.-.;.H >.,.'.                        ",
"                          ).!.~.{.].                            ",
"                          ^./.(._.:.                            ",
"                          ^.<./.[.                              ",
"                          }.u |.1.                              ",
"                          V 2.3.V                               ",
"                                                                ",
"                            4.5.                                ",
"                          6.7.8.9.W                             ",
"                        A 0.a.4 b.c.                            ",
"                        d.{.^ e.f.g.                            ",
"                        h.i.j.k.l.*.                            ",
"                          m.n.o.p.                              ",
"                                                                ",
"                                                                ",
"                                                                ",
"                                                                "};
