/* XPM */
static char * reconnect_xpm[] = {
"32 32 307 2",
"  	c None",
". 	c #4D848F",
"+ 	c #4A7997",
"@ 	c #497694",
"# 	c #497693",
"$ 	c #4B7A97",
"% 	c #4D7B9A",
"& 	c #589A70",
"* 	c #4F9148",
"= 	c #67A288",
"- 	c #7CACC8",
"; 	c #8CBED9",
"> 	c #8CBEDB",
", 	c #7CADCA",
"' 	c #6396B2",
") 	c #4F904C",
"! 	c #589C6A",
"~ 	c #54975D",
"{ 	c #5B9F50",
"] 	c #92D499",
"^ 	c #A2DFB3",
"/ 	c #99CAE4",
"( 	c #93C6E1",
"_ 	c #8AC1DE",
": 	c #87BDDD",
"< 	c #95CFC5",
"[ 	c #93D599",
"} 	c #5AA14F",
"| 	c #539558",
"1 	c #599D6F",
"2 	c #599C4E",
"3 	c #9CDDA6",
"4 	c #A1DFAE",
"5 	c #87D096",
"6 	c #5097C1",
"7 	c #4890BD",
"8 	c #4991BD",
"9 	c #4E93C0",
"0 	c #68BF74",
"a 	c #6FCB60",
"b 	c #73CC65",
"c 	c #58A14A",
"d 	c #5AA062",
"e 	c #4F8C55",
"f 	c #87C5A5",
"g 	c #94D5A9",
"h 	c #75CD67",
"i 	c #5CB085",
"j 	c #3D87B6",
"k 	c #3984B3",
"l 	c #3B87B0",
"m 	c #4F9F97",
"n 	c #6ECA5D",
"o 	c #6BC55B",
"p 	c #509344",
"q 	c #4C7D97",
"r 	c #5B8FAE",
"s 	c #92C5E1",
"t 	c #5599C5",
"u 	c #4893B0",
"v 	c #3986B2",
"w 	c #327EAE",
"x 	c #489B8E",
"y 	c #6BC661",
"z 	c #5FAF50",
"A 	c #579B63",
"B 	c #4A7898",
"C 	c #6CA1C2",
"D 	c #63A4CB",
"E 	c #4A91BE",
"F 	c #3B87B4",
"G 	c #327FAE",
"H 	c #2C7BAC",
"I 	c #53A97D",
"J 	c #65BA5C",
"K 	c #4B8087",
"L 	c #497692",
"M 	c #619EC6",
"N 	c #569BC7",
"O 	c #468EBC",
"P 	c #3783B2",
"Q 	c #2E7DAD",
"R 	c #2B7AAB",
"S 	c #36869C",
"T 	c #6DC95E",
"U 	c #6EC95E",
"V 	c #65AEAA",
"W 	c #5E9EC5",
"X 	c #2A78A9",
"Y 	c #409392",
"Z 	c #6BC760",
"` 	c #62AF9F",
" .	c #62A3CB",
"..	c #4A7998",
"+.	c #5994B9",
"@.	c #599DC7",
"#.	c #2B79AB",
"$.	c #2C7AAB",
"%.	c #307FA8",
"&.	c #449599",
"*.	c #4E9F9A",
"=.	c #56A0AB",
"-.	c #5C9FCA",
";.	c #5D9AC0",
">.	c #4A7996",
",.	c #4A7A9A",
"'.	c #548AAC",
").	c #5EA0CA",
"!.	c #5196C3",
"~.	c #438CBA",
"{.	c #3B88AF",
"].	c #4C9F8A",
"^.	c #3C8C9C",
"/.	c #307EAD",
"(.	c #3380AF",
"_.	c #3B86B4",
":.	c #478FBC",
"<.	c #5BA3B3",
"[.	c #67B696",
"}.	c #5CA471",
"|.	c #54946C",
"1.	c #497895",
"2.	c #5E9CC4",
"3.	c #5A9DC8",
"4.	c #549EAE",
"5.	c #68C16A",
"6.	c #68C267",
"7.	c #3B86B1",
"8.	c #3E88B6",
"9.	c #5197C2",
"0.	c #6AC077",
"a.	c #4D7F9F",
"b.	c #64AEAF",
"c.	c #6DC863",
"d.	c #5BAC8F",
"e.	c #549AC5",
"f.	c #5D9FCA",
"g.	c #69BB8A",
"h.	c #59A061",
"i.	c #4F857F",
"j.	c #559C4A",
"k.	c #6AC259",
"l.	c #6DC85F",
"m.	c #60AAAD",
"n.	c #65ADA9",
"o.	c #68BA7B",
"p.	c #57A04A",
"q.	c #539457",
"r.	c #6AC35A",
"s.	c #6BC45A",
"t.	c #64B855",
"u.	c #5DAB4F",
"v.	c #509148",
"w.	c #56986E",
"x.	c #437392",
"y.	c #568CB0",
"z.	c #6798B7",
"A.	c #5586A7",
"B.	c #467A99",
"C.	c #457896",
"D.	c #467494",
"E.	c #467592",
"F.	c #5A9F62",
"G.	c #417DA3",
"H.	c #4F87A9",
"I.	c #7FA9C2",
"J.	c #79A6C1",
"K.	c #6D9EC0",
"L.	c #6DA5C8",
"M.	c #5689AB",
"N.	c #447493",
"O.	c #37769E",
"P.	c #33729B",
"Q.	c #3979A0",
"R.	c #4F8DB4",
"S.	c #65A2C8",
"T.	c #4C7D9C",
"U.	c #437593",
"V.	c #3A789E",
"W.	c #33739B",
"X.	c #3D7CA3",
"Y.	c #5794BB",
"Z.	c #68A4C9",
"`.	c #467694",
" +	c #457391",
".+	c #467390",
"++	c #447391",
"@+	c #81ABC6",
"#+	c #4480A6",
"$+	c #37779F",
"%+	c #4281A9",
"&+	c #5D9AC1",
"*+	c #6099BE",
"=+	c #7BA7C3",
"-+	c #7AA8C6",
";+	c #467491",
">+	c #6192B2",
",+	c #B1CDE0",
"'+	c #4C8AB2",
")+	c #4784AC",
"!+	c #4D8BB1",
"~+	c #639FC5",
"{+	c #5488A9",
"]+	c #457492",
"^+	c #578EB0",
"/+	c #77A5C2",
"(+	c #5488AA",
"_+	c #9EC0D6",
":+	c #75A7C7",
"<+	c #5F9DC3",
"[+	c #487998",
"}+	c #467695",
"|+	c #66A2C6",
"1+	c #457292",
"2+	c #3D7BA2",
"3+	c #4A89B0",
"4+	c #639FC4",
"5+	c #477593",
"6+	c #4B7C9A",
"7+	c #A4C4D9",
"8+	c #5C98BF",
"9+	c #5C93B6",
"0+	c #497A99",
"a+	c #467492",
"b+	c #437799",
"c+	c #35759D",
"d+	c #4584AB",
"e+	c #619EC5",
"f+	c #497896",
"g+	c #5488A7",
"h+	c #71A0BE",
"i+	c #5A97BD",
"j+	c #5185A5",
"k+	c #457694",
"l+	c #36769D",
"m+	c #4685AC",
"n+	c #629EC4",
"o+	c #4D7E9C",
"p+	c #5B8BA9",
"q+	c #75A4C1",
"r+	c #4F8CB4",
"s+	c #5287A8",
"t+	c #447696",
"u+	c #3A78A0",
"v+	c #4B8AB1",
"w+	c #64A0C7",
"x+	c #4D7D9D",
"y+	c #467897",
"z+	c #72A1BE",
"A+	c #3F7FA6",
"B+	c #528EB2",
"C+	c #457390",
"D+	c #588AAA",
"E+	c #4381A6",
"F+	c #5492B9",
"G+	c #67A3CA",
"H+	c #487795",
"I+	c #528AAD",
"J+	c #35749C",
"K+	c #3D7CA5",
"L+	c #497FA2",
"M+	c #447594",
"N+	c #7EAAC5",
"O+	c #4887AE",
"P+	c #609CC3",
"Q+	c #66A0C5",
"R+	c #467C9F",
"S+	c #34749B",
"T+	c #33749B",
"U+	c #38779E",
"V+	c #548AAD",
"W+	c #457797",
"X+	c #467493",
"Y+	c #457695",
"Z+	c #4F84A5",
"`+	c #9BBED3",
" @	c #6F9FBE",
".@	c #5996BD",
"+@	c #68A5CB",
"@@	c #4C7B9A",
"#@	c #34739B",
"$@	c #5E91B2",
"%@	c #87B0C8",
"&@	c #94B9CF",
"*@	c #9FC1D6",
"=@	c #5F96B8",
"-@	c #66A2C9",
";@	c #598EB1",
">@	c #4884AA",
",@	c #3E7DA4",
"'@	c #3C7AA2",
")@	c #3B7AA2",
"!@	c #3D7CA4",
"~@	c #4282AA",
"{@	c #4D8BB2",
"]@	c #66A3C9",
"^@	c #588CAF",
"/@	c #4B7E9F",
"(@	c #538FB5",
"_@	c #5391B8",
":@	c #5795BC",
"<@	c #5D9BC1",
"[@	c #64A1C5",
"}@	c #6199BE",
"|@	c #477694",
"1@	c #497997",
"2@	c #487997",
"                          . + @ # $ %                           ",
"                      & * = - ; > , ' ) !                       ",
"                    ~ { ] ^ / ( _ : < [ } |                     ",
"                  1 2 3 4 5 6 7 8 9 0 a b c d                   ",
"                  e f g h i j k l m n n n o p                   ",
"                q r s t u v w x y n n n n n z A                 ",
"                B C D E F G H I n n n n n n J K                 ",
"                L M N O P Q R S T n n n n U V L                 ",
"                # W N O P Q R X Y Z n n n `  .L                 ",
"                ..+.@.E F G H #.$.%.&.*.=.-.;.>.                ",
"                ,.'.).!.~.{.].^./.(._.:.<.[.}.|.                ",
"                  1.2.3.4.5.n 6.7.8.O 9.0.o p                   ",
"                    a.b.c.n n n d.9 e.f.g.c h.                  ",
"                    i.j.k.n n n l.m.n.o.p.q.                    ",
"                              r.s.t.u.v.w.                      ",
"                  x.y.z.A.B.C.D.E.  F.                          ",
"                    G.H.I.J.K.L.M.                              ",
"                    N.O.P.Q.R.S.T.                              ",
"                    U.V.W.X.Y.Z.`.       +.+                    ",
"                  ++@+#+$+%+&+*+ +     +=+-+;+                  ",
"                  >+,+'+)+!+~+{+    ]+^+/++.(+                  ",
"                E._+:+<+[+}+|+..    1+2+$+3+4+5+                ",
"                6+7+8+9+    0+a+      b+c+d+e+f+                ",
"                g+h+i+j+              k+l+m+n+o+                ",
"                p+q+r+s+              t+u+v+w+x+                ",
"                y+z+A+B+C+            D+E+F+G+H+                ",
"                E.I+J+K+L+          M+N+O+P+Q+a+                ",
"                  R+S+T+U+V+W+X+Y+Z+`+ @.@+@@@                  ",
"                   +#+c+#@J+$@%@&@*@=@Y.-@;@                    ",
"                    ]+>@,@'@)@!@~@{@;.]@^@ +                    ",
"                      C+/@(@_@:@<@[@}@..                        ",
"                          a+|@1@2@5+C+                          "};
